<svg version="1.1" xmlns="http://www.w3.org/2000/svg" viewBox="-77.03456449054659 -20.190259120314046 147.71777338590326 40.65463448991416" fill="none" stroke="black" stroke-width="0.6%" vector-effect="non-scaling-stroke">
    <path d="M -12.4054 15.57012 A 67 5.60054 360 0 1 -73.87155 9.98871" />
    <path d="M -73.87155 6.51041 A 5 0.41795 360 0 1 -76.03456 6.16625" />
    <path d="M -2.66062 16.45672 A 5 0.41795 360 0 1 -12.4054 16.32489" />
    <path d="M -2.66062 16.45672 L -0.75824 16.72603 L 2.74395 17.01919" />
    <path d="M 2.74395 17.07211 A 5 0.41795 180 0 0 9.63919 17.45888 L 13.3824 17.64422 L 20.4725 17.81685 L 28.52944 18.93504 L 45.46867 19.2865 A 5 0.41795 180 0 0 53.72621 19.2777 L 61.16702 18.91045 A 5 0.41795 180 0 0 65.75574 18.49391" />
    <path d="M 65.75574 18.18578 L 69.68321 16.86313 L 69.68321 -5.05988 L 61.83079 -6.14969 L 62.83019 -6.38123 L 63.68565 -7.13215 L 63.60178 -7.17661" />
    <path d="M -6.92343 4.62775 A 67 5.60054 360 0 1 -73.87155 -0.97279 A 67 5.60054 360 0 1 -61.22528 -4.24743" />
    <path d="M -66.83303 -4.56868 A 5 0.41795 360 0 1 -66.95623 -4.66089" />
    <path d="M -63.61459 -16.01668 A 5 0.41795 180 0 0 -66.95623 -15.62239 A 5 0.41795 180 1 0 -56.95623 -15.62239 A 5 0.41795 180 0 0 -61.62126 -16.0394" />
    <path d="M -56.95623 -4.66089 A 5 0.41795 360 0 1 -61.22528 -4.24743" />
    <path d="M -66.83303 -4.56868 L -66.83303 -3.47159" />
    <path d="M -6.92343 -6.30142 L -5.1594 -6.38849 L -3.92361 -6.032" />
    <path d="M -6.92343 4.94739 L -6.92343 -6.30142 L -5.34644 -5.84651 L -0.75824 -5.19697 L 2.77975 -4.90082" />
    <path d="M -71.6227 -5.2103 A 5 0.41795 180 0 0 -76.03456 -4.79525 A 5 0.41795 180 0 0 -66.83303 -4.56868" />
    <path d="M -6.47436 4.95275 L -6.47436 3.79312 L -6.41888 3.818 L -6.3897 3.81755 L -6.47436 3.79312" />
    <path d="M -6.3897 3.81755 L -6.3897 4.95415" />
    <path d="M -5.34644 5.11499 L -5.8636 4.96581" />
    <path d="M -5.34644 5.11499 L -5.34644 -5.84651" />
    <path d="M -64.22758 -16.10176 L -64.22758 -15.99473" />
    <path d="M -67.63041 -16.83206 A 5 0.41795 180 0 0 -72.54912 -16.41416 A 5 0.41795 180 0 0 -64.22758 -16.10176 L -63.61459 -16.01668" />
    <path d="M -66.96098 -5.03761 A 5 0.41795 360 0 1 -71.6227 -5.2103" />
    <path d="M -6.41888 4.95366 L -6.41888 3.818" />
    <path d="M -63.37916 -18.26375 L -67.63041 -16.83206" />
    <path d="M -58.86942 -18.49079 L -63.37916 -18.26375" />
    <path d="M -50.46869 -18.91373 A 5 0.41795 180 0 0 -60.17373 -18.77231 A 5 0.41795 180 0 0 -58.86942 -18.49079" />
    <path d="M -2.66062 5.49522 L -2.66062 16.45672" />
    <path d="M -2.66062 5.49522 A 5 0.41795 360 0 1 -12.4054 5.36339 A 5 0.41795 360 0 1 -5.8636 4.96581" />
    <path d="M -46.33271 -19.12196 L -50.46869 -18.91373" />
    <path d="M -2.66062 5.49522 L -5.34644 5.11499" />
    <path d="M -0.75824 16.72603 L -0.75824 -5.19697" />
    <path d="M -28.7593 -18.75735 L -46.33271 -19.12196" />
    <path d="M -28.7593 -18.75735 A 5 0.41795 360 0 1 -19.49437 -18.53921 A 5 0.41795 360 0 1 -22.86127 -18.14418" />
    <path d="M 9.63919 -4.46413 A 5 0.41795 360 0 1 2.74395 -4.85089 A 5 0.41795 360 0 1 2.77975 -4.90082" />
    <path d="M 9.63919 -4.46413 L 9.63919 17.45888" />
    <path d="M -13.90148 -7.89753 A 5 0.41795 360 0 1 -10.92448 -7.51532 A 5 0.41795 360 0 1 -13.90148 -7.1331" />
    <path d="M 13.3824 17.64422 L 13.3824 -4.27879 L 20.4725 -4.10616 L 28.52944 -2.98796 L 45.46867 -2.63651 A 5 0.41795 180 0 0 54.5615 -2.87658 A 5 0.41795 180 0 0 44.5615 -2.87658 A 5 0.41795 180 0 0 44.6192 -2.81327" />
    <path d="M 9.63919 -4.46413 L 13.3824 -4.27879" />
    <path d="M -14.92336 -6.53274 A 5 0.41795 360 0 1 -21.63096 -6.43575" />
    <path d="M -22.24289 -18.05835 A 5 0.41795 360 0 1 -13.90148 -17.74744 A 5 0.41795 360 1 1 -23.90148 -17.74744 A 5 0.41795 360 0 1 -23.43273 -17.92412 L -24.86125 -18.12238 L -24.86125 0.81112 A 5 0.41795 360 0 1 -29.49437 0.3943" />
    <path d="M 20.4725 17.81685 L 20.4725 -4.10616" />
    <path d="M -14.92336 -6.53274 A 67 5.60054 360 0 1 47.94915 -4.19257" />
    <path d="M 28.52944 18.93504 L 28.52944 -2.98796" />
    <path d="M 45.46867 -2.63651 L 45.46867 19.2865" />
    <path d="M 50.44905 -9.13314 L 52.28671 -9.22385" />
    <path d="M 50.44905 -9.13314 L 50.44905 -8.8419" />
    <path d="M 53.72621 7.3197 L 53.72621 19.2777" />
    <path d="M 54.5615 7.08842 A 5 0.41795 360 0 1 53.72621 7.3197 L 61.16702 6.95244 A 5 0.41795 360 0 1 55.75574 6.53591" />
    <path d="M 53.17614 -9.16609 L 52.28671 -9.22385" />
    <path d="M 61.16702 6.95244 L 61.16702 18.91045" />
    <path d="M 58.70206 -8.56974 L 53.17614 -9.16609" />
    <path d="M 63.90159 -3.75395 A 5 0.41795 180 0 0 55.75574 -3.42909 A 5 0.41795 180 0 0 65.75574 -3.42909 A 5 0.41795 180 0 0 65.3376 -3.59641 L 69.68321 -5.05988" />
    <path d="M 62.28018 -7.87726 L 58.70206 -8.56974" />
    <path d="M 62.34209 -7.84443 L 62.28018 -7.87726" />
    <path d="M 62.83019 -6.01099 L 62.83019 -6.38123" />
    <path d="M 62.34209 -7.84443 A 5 0.41795 360 0 1 65.06737 -7.47224 L 65.06737 -5.7005" />
    <path d="M 65.06737 -7.47224 A 5 0.41795 360 0 1 63.60178 -7.17661" />
    <path d="M 63.68565 -5.89226 L 63.68565 -7.13215" />
    <path d="M -66.96098 -5.03761 A 5 0.41795 360 0 1 -66.95623 -5.03705" />
    <path d="M -22.24289 -18.05835 L -22.86127 -18.14418" />
    <path d="M -23.89483 -6.2598 A 65.5 5.47516 360 0 1 47.94915 -3.96917" />
    <path d="M -6.92343 4.50237 A 65.5 5.47516 360 0 1 -72.37155 -0.97279 A 65.5 5.47516 360 0 1 -54.03316 -4.77227" />
    <path d="M -23.89483 -6.2598 L -24.68559 -6.37175 A 67 5.60054 360 0 1 -21.63096 -6.43575" />
    <path d="M -56.95623 -4.69281 A 67 5.60054 360 0 1 -54.82392 -4.88421 L -54.03316 -4.77227" />
    <path d="M -70.14479 -4.66929 A 1.75 0.14628 360 0 1 -72.78456 -4.79525 A 1.75 0.14628 360 1 1 -69.28456 -4.79525 A 1.75 0.14628 360 0 1 -70.14479 -4.66929 Z" />
    <path d="M -24.86125 -18.12238 A 5 0.41795 360 0 1 -29.49437 -18.53921 L -29.49437 0.3943" />
    <path d="M -29.49437 -18.53921 A 5 0.41795 360 0 1 -29.4182 -18.61188 L -46.03502 -18.95665 L -50.1823 -18.74785 L -50.1823 0.18566 A 5 0.41795 360 0 1 -54.03316 0.56813" />
    <path d="M -50.1823 -18.74785 A 5 0.41795 360 0 1 -57.24914 -18.39206 L -57.24914 -15.76334" />
    <path d="M -57.24914 -18.39206 L -61.7702 -18.16445 L -65.80442 -16.80584 A 5 0.41795 360 0 1 -62.54912 -16.41416 L -62.54912 -16.16818" />
    <path d="M -63.03127 -16.23509 L -61.62126 -16.0394" />
    <path d="M -62.54912 -16.41416 A 5 0.41795 360 0 1 -63.03127 -16.23509" />
    <path d="M -61.06646 -15.49643 A 1.75 0.14628 360 0 1 -63.70623 -15.62239 A 1.75 0.14628 360 1 1 -60.20623 -15.62239 A 1.75 0.14628 360 0 1 -61.06646 -15.49643 Z" />
    <path d="M -66.65934 -16.2882 A 1.75 0.14628 360 0 1 -69.29912 -16.41416 A 1.75 0.14628 360 1 1 -65.79912 -16.41416 A 1.75 0.14628 360 0 1 -66.65934 -16.2882 Z" />
    <path d="M -54.48734 -18.67514 A 1.75 0.14628 360 0 1 -57.12711 -18.8011 A 1.75 0.14628 360 1 1 -53.62711 -18.8011 A 1.75 0.14628 360 0 1 -54.48734 -18.67514 Z" />
    <path d="M -18.0117 -17.62147 A 1.75 0.14628 360 0 1 -20.65148 -17.74744 A 1.75 0.14628 360 1 1 -17.15148 -17.74744 A 1.75 0.14628 360 0 1 -18.0117 -17.62147 Z" />
    <path d="M -23.60459 -18.41324 A 1.75 0.14628 360 0 1 -26.24437 -18.53921 A 1.75 0.14628 360 1 1 -22.74437 -18.53921 A 1.75 0.14628 360 0 1 -23.60459 -18.41324 Z" />
    <path d="M -12.87155 1.54707 A 65.5 5.47516 180 0 0 -23.89483 1.7122 L -23.89483 -6.2598" />
    <path d="M -24.68559 1.60026 L -23.89483 1.7122" />
    <path d="M -46.03502 -0.02314 L -50.1823 0.18566" />
    <path d="M -29.49437 0.32004 L -46.03502 -0.02314 L -46.03502 -18.95665" />
    <path d="M -24.68559 0.8355 L -24.86125 0.81112" />
    <path d="M -53.77095 1.71612 L -54.03316 1.72906" />
    <path d="M -53.80517 1.42357 L -53.77095 1.71612" />
    <path d="M -54.03316 1.41281 L -53.80517 1.42357" />
    <path d="M -46.6159 3.30445 L -49.66395 3.16066 L -49.69818 2.8681 L -46.68434 2.71935 L -43.63629 2.86315 L -43.60207 3.1557 L -46.6159 3.30445 Z" />
    <path d="M -39.51366 2.37815 A 7.1 0.59349 360 0 1 -50.22361 1.8671 A 7.1 0.59349 360 1 1 -36.02361 1.8671 A 7.1 0.59349 360 0 1 -39.51366 2.37815 Z" />
    <path d="M -39.56288 1.01485 L -42.61093 0.87105 L -42.64516 0.5785 L -39.63132 0.42975 L -36.58327 0.57355 L -36.54905 0.8661 L -39.56288 1.01485 Z" />
    <path d="M -29.394 2.45444 L -32.44205 2.31064 L -32.47628 2.01809 L -29.46244 1.86933 L -26.41439 2.01313 L -26.38017 2.30568 L -29.394 2.45444 Z" />
    <path d="M -36.10708 2.86041 A 57.5 4.80644 360 0 1 -12.87155 2.21902" />
    <path d="M -45.57266 3.44444 A 57.5 4.80644 360 0 1 -36.10708 2.86041" />
    <path d="M 29.7174 -3.12245 L 44.6192 -2.81327" />
    <path d="M 27.45876 -3.43592 L 29.7174 -3.12245" />
    <path d="M 27.35571 -3.43084 L 27.45876 -3.43592" />
    <path d="M 21.25438 -4.29459 L 27.35571 -3.43084" />
    <path d="M 21.25438 -4.29459 L 19.74746 -4.22021 L 18.29919 -4.42524 L 18.26249 -4.41288 L 18.96291 -4.31567" />
    <path d="M -0.21749 -5.44663 A 5 0.41795 180 0 0 5.62573 -5.8586 L 5.62573 -5.22948" />
    <path d="M 5.62573 -5.8586 A 5 0.41795 180 0 0 -3.92361 -6.032" />
    <path d="M -0.21749 -5.44663 L 0.82292 -5.29935 L 3.51559 -5.07395" />
    <path d="M 14.17796 -4.43217 L 18.96291 -4.31567" />
    <path d="M 11.42814 -4.56833 A 5 0.41795 180 0 0 12.74395 -4.85089 L 12.74395 -4.50318" />
    <path d="M 12.74395 -4.85089 A 5 0.41795 180 0 0 3.51559 -5.07395" />
    <path d="M 11.42814 -4.56833 L 14.17796 -4.43217" />
    <path d="M 8.63373 -4.72493 A 1.75 0.14628 360 0 1 5.99395 -4.85089 A 1.75 0.14628 360 1 1 9.49395 -4.85089 A 1.75 0.14628 360 0 1 8.63373 -4.72493 Z" />
    <path d="M 1.51551 -5.73263 A 1.75 0.14628 360 0 1 -1.12427 -5.8586 A 1.75 0.14628 360 1 1 2.37573 -5.8586 A 1.75 0.14628 360 0 1 1.51551 -5.73263 Z" />
    <path d="M 50.65466 -2.72183 A 1.75 0.14628 360 0 1 48.01488 -2.84779 A 1.75 0.14628 360 1 1 51.51488 -2.84779 A 1.75 0.14628 360 0 1 50.65466 -2.72183 Z" />
    <path d="M -6.51562 5.48936 A 1.75 0.14628 360 0 1 -9.1554 5.36339 A 1.75 0.14628 360 1 1 -5.6554 5.36339 A 1.75 0.14628 360 0 1 -6.51562 5.48936 Z" />
    <path d="M -24.68559 1.60026 L -24.68559 -6.37175" />
    <path d="M 60.05196 -7.89019 L 57.69039 -8.34723 L 57.69039 -7.83994" />
    <path d="M 60.05196 -7.89019 A 5 0.41795 180 0 0 55.06737 -7.47224 L 55.06737 3.12784" />
    <path d="M 55.06737 -7.47224 A 5 0.41795 180 0 0 61.62752 -7.07516" />
    <path d="M 53.15474 -8.89754 A 5 0.41795 180 0 0 47.94915 -8.47995 L 47.94915 -3.27221" />
    <path d="M 47.94915 -8.47995 A 5 0.41795 180 0 0 57.69039 -8.34723" />
    <path d="M 60.87866 -6.41781 L 61.62752 -7.07516" />
    <path d="M 53.15474 -8.89754 L 51.76095 -9.04796 L 50.44905 -9.13314" />
    <path d="M 60.53291 -6.33771 L 60.87866 -6.41781" />
    <path d="M 61.08002 -6.26025 L 60.53291 -6.33771" />
    <path d="M 61.08002 -6.26025 L 59.57311 -6.18588 L 65.67444 -5.32213" />
    <path d="M 65.64652 -5.32075 L 65.67444 -5.32213" />
    <path d="M 67.70549 -5.03499 L 65.64652 -5.32075 L 65.64652 -4.3416" />
    <path d="M 63.90159 -3.75395 L 67.70549 -5.03499" />
    <path d="M 61.64551 -3.30313 A 1.75 0.14628 360 0 1 59.00574 -3.42909 A 1.75 0.14628 360 1 1 62.50574 -3.42909 A 1.75 0.14628 360 0 1 61.64551 -3.30313 Z" />
    <path d="M 53.83893 -8.35398 A 1.75 0.14628 360 0 1 51.19915 -8.47995 A 1.75 0.14628 360 1 1 54.69915 -8.47995 A 1.75 0.14628 360 0 1 53.83893 -8.35398 Z" />
    <path d="M 60.95715 -7.34628 A 1.75 0.14628 360 0 1 58.31737 -7.47224 A 1.75 0.14628 360 1 1 61.81737 -7.47224 A 1.75 0.14628 360 0 1 60.95715 -7.34628 Z" />
    <path d="M 51.76095 -8.88593 L 51.76095 -9.04796" />
    <path d="M 55.75574 6.34586 L 54.5615 6.4048" />
    <path d="M -39.26603 2.36535 A 7.1 0.59349 180 0 0 -46.98119 2.36535" />
    <path d="M -54.03316 2.82669 L -54.03316 -4.77227" />
    <path d="M -61.7702 -16.06007 L -61.7702 -18.16445" />
    <path d="M -53.80517 1.71781 L -53.80517 1.42357" />
    <path d="M -43.63629 3.15739 L -43.63629 2.86315" />
    <path d="M -46.68434 3.30123 L -46.68434 2.71935" />
    <path d="M -36.58327 0.86779 L -36.58327 0.57355" />
    <path d="M -39.63132 1.01162 L -39.63132 0.42975" />
    <path d="M -26.41439 2.30737 L -26.41439 2.01313" />
    <path d="M -29.46244 2.45121 L -29.46244 1.86933" />
    <path d="M -36.10708 3.85691 A 57.5 4.80644 180 0 0 -36.861 3.89478" />
    <path d="M -12.87155 3.21552 A 57.5 4.80644 180 0 0 -36.10708 3.85691" />
    <path d="M 18.26249 -4.33272 L 18.26249 -4.41288" />
    <path d="M 60.53291 -6.23325 L 60.53291 -6.33771" />
    <path d="M 59.57311 -3.83519 L 59.57311 -6.18588" />
    <path d="M 54.5615 3.54111 L 55.75574 3.48217" />
    <path d="M 55.75574 3.09387 L 54.5615 3.15281" />
    <path d="M -9.92222 -0.40816 A 6 0.50154 360 0 1 -6.92343 -0.47781" />
    <path d="M -6.92343 0.52523 A 6 0.50154 360 0 1 -12.87155 0.02371 L -12.87155 4.47935" />
    <path d="M -12.87155 0.02371 A 6 0.50154 360 0 1 -9.92222 -0.40816" />
    <path d="M -6.92343 0.37058 A 4.15 0.3469 360 0 1 -11.02155 0.02371 A 4.15 0.3469 360 0 1 -6.92343 -0.32316" />
    <path d="M -73.87155 -0.97279 L -73.87155 9.98871" />
    <path d="M -66.95623 -15.62239 L -66.95623 -4.66089" />
    <path d="M -56.95623 -15.62239 L -56.95623 -4.66089" />
    <path d="M -76.03456 -4.79525 L -76.03456 6.16625" />
    <path d="M -72.54912 -16.41416 L -72.54912 -5.19357" />
    <path d="M -60.17373 -18.77231 L -60.17373 -18.42513" />
    <path d="M -12.4054 5.36339 L -12.4054 16.32489" />
    <path d="M -19.49437 -18.53921 L -19.49437 -18.16244" />
    <path d="M 2.74395 -4.85089 L 2.74395 17.07211" />
    <path d="M -10.92448 -7.51532 L -10.92448 -6.56308" />
    <path d="M -23.90148 -17.74744 L -23.90148 -6.3894" />
    <path d="M -13.90148 -17.74744 L -13.90148 -6.54242" />
    <path d="M 44.5615 -2.87658 L 44.5615 -2.81447" />
    <path d="M 54.5615 -2.87658 L 54.5615 7.08842" />
    <path d="M 55.75574 -3.42909 L 55.75574 6.53591" />
    <path d="M 65.75574 -3.42909 L 65.75574 18.49391" />
</svg>